<svg xmlns="http://www.w3.org/2000/svg" viewBox="0 0 1114.83 742.24"><defs><style>.cls-1,.cls-3{fill:#eee;}.cls-1,.cls-2{opacity:1;}.cls-1{isolation:isolate;}</style></defs><title>Fichier 1</title><g id="Calque_2" data-name="Calque 2"><g id="Calque_1-2" data-name="Calque 1"><path class="cls-1" d="M265.49,547.74l28.63-35.46-44-11.86,2.32-45.52-42.57,16.27L185,433l-24.88,38.19L117.52,454.9l2.32,45.52-44,11.86,28.63,35.46L75.84,583.21l44,11.86-2.32,45.52,42.58-16.27L185,662.53l24.88-38.19,42.57,16.27-2.32-45.52,44-11.86Zm17.64-31.89-9.26,12.08-14.58-4.33,9.25-12.07Zm-34.51-10.23,15.79,4.68-11.79,15.48,18.69,5.55-10,13.07-12.69-17.35Zm0,28.24,7.58,10.44-7.58-2.09Zm0,12.49,5,1.39-5,1.39Zm0,6.93,7.58-2.09-7.58,10.44Zm-17.36-84,14.36-5-.39,15.21-14.32,5.07Zm-4,1.43-.5,19.49,18.38-6.5-.42,16.47-20.39-6.64-12.6-17.35Zm6,118.9,7.36,2.81-12.27,4Zm-10.15,7.15-11-15.07,17.21,6.46ZM213.26,559l-9,2.68.33,12.89-3.46-1.3.14.18-8.89-3.14-7.31,10.62-2-3.08v.23l-5.45-7.73-12.15,4.3.17-3.69-.14.18.24-9.42-9-2.68L157,559l-3.57-1,7.84-10.24-5.73-7.48.22.07-2.3-2.89,12.35-3.66-.24-9.43.09.2-.17-3.69,12.17,4.3,5.35-7.76v.23l2-3.08,7.31,10.61,12.15-4.29-.16,3.69.13-.19-.24,9.43,9,2.68-.22.07,3.56,1-7.84,10.23,8,10.21-3.56,1ZM187,609.84V591.2h0l10.12,15.33L187,609.82Zm12.41.17,4.33,6.52-12.27-4Zm-12-25.45,6.49-9.42L204.67,579l1.12,24.78-4.74,1.54ZM170.62,610l7.94,2.58-12.27,4ZM169,605.27l-4.74-1.54L165.34,579l10.79-3.81,6.49,9.39Zm3.89,1.26L183,591.18v18.66ZM141.62,596.4l-12.28-4,7.37-2.77Zm-1-8.21,17.22-6.46-11,15.07Zm-11.21-.06,3.26-4.08,1.63,2.24Zm-4.09-1.29v-12.9l4.91,6.75Zm7.5-9.39-6.26-8.62,17.72-5.76ZM125.32,565V554.38l17.73,4.89Zm0-14.8v-5l23.91-6.59,7,9.08-7,9.09Zm11.42-44.39-7.37-2.77,12.28-4Zm10.14-7.16,11,15.08-17.26-6.46Zm-14.26,12.76-3.26-4.08,4.89,1.83Zm11.61,21-17.72-5.76,6.26-8.61Zm-14-17.61-4.88,6.7v-12.9ZM143,536.25l-17.73,4.88V530.49Zm27.62-50.77-4.33-6.57,12.27,4Zm12.41.17v18.63L172.9,488.94Zm-.41,25.27-6.49,9.43-10.84-3.82-1.12-24.78,4.74-1.54Zm16.82-25.44-7.94-2.58,12.27-4Zm1.66,4.74,4.74,1.54-1.17,24.77-10.79,3.81-6.49-9.43Zm-3.95-1.28L187,504.28V485.65Zm16.68,58.8,7-9.08,23.79,6.59v5l-23.91,6.6Zm14.55-48.66,12.27,4-7.36,2.77Zm1,8.22-17.21,6.46,11-15.08Zm15.24,14.23-4.9-6.75,4.9-6.15Zm0,8.91V541.1l-17.72-4.88Zm-4-23.08-3.26,4.08-1.64-2.25ZM237.21,518l6.25,8.61-17.72,5.76Zm7.41,36.34V565l-17.72-5.76Zm-1.2,14.45-6.26,8.62-11.47-14.38Zm-6.11,15.22,3.25,4.08-4.89-1.84Zm2.44-3.36,4.9-6.75v12.9ZM210.27,481l7.59,10.44-7.94-2.58Zm-.54,12,10.13,3.29-11,15.08Zm-1.11,26.33,23.22-8.72,2.93,4L219.3,534l-11-3.26ZM206,487.62l-2.64-.86,2.88-4.36Zm-21-43.08,8.6,12.54L185,469.61l-8.63-12.53Zm-11.1,16.06L185,476.66,196,460.6l9.34,13.57L185,480.79l-20.36-6.62Zm-7.3,26.16-2.64.86-.23-5.22Zm-4.94,44-11,3.26-15.47-19.39,2.92-4,23.22,8.72ZM160.22,493l.83,18.37-11-15.08ZM160,488.9l-7.93,2.58L159.68,481Zm-1.8-12.67-12.61,17.3-20.4,6.63-.41-16.47,18.38,6.5-.5-19.49Zm-71.4,39.62,14.58-4.32,9.21,12.07L96,527.93Zm0,63.78,9.25-12.1,14.54,4.36L101.37,584Zm34.47,10.24-15.78-4.69,11.85-15.47-18.68-5.55,10-13.07,12.6,17.34Zm0-28.24-7.58-10.44,7.58,2.09Zm0-12.5-5-1.39,5-1.39Zm0-6.92-7.58,2.09,7.58-10.44Zm0-15.16L108.7,544.4l-10-13.07,18.68-5.55L105.52,510.3l15.78-4.68Zm17.32-57.73.39,15.21-14.34-5.07-.39-15.21Zm0,156.85-14.3,5.06.39-15.2L139.05,611Zm4-1.43.5-19.49-18.38,6.5.41-16.47,20.47,6.63,12.61,17.34Zm17-10.29L152,604l7.93,2.58Zm.54-12L150,599.16l11-15.08Zm1.16-26.34-23.22,8.72-2.92-4,15.46-19.39,11,3.26Zm2.6,31.76,2.7.86-2.88,4.36Zm21,43.07-8.63-12.53,8.63-12.53,8.7,12.53ZM196,634.88l-11-16-11.06,16-9.3-13.56L185,614.69l20.39,6.63Zm7.3-26.15,2.64-.86.24,5.22Zm5-44.06,11-3.26,15.47,19.39-2.93,4-23.19-8.69Zm1.45,37.78-.83-18.37,11,15.08Zm.19,4.14,7.94-2.58-7.59,10.44Zm1.81,12.66,12.6-17.34,20.39-6.63.42,16.47-18.38-6.5.5,19.49Zm19.56,6.92L230.9,611,245.24,616l.38,15.2Zm17.34-36.3V568.43l12.6-17.34,10,13.07-18.6,5.55,11.86,15.47Zm10.64-18,14.61-4.34,9.26,12.07-14.59,4.33Z"/><g class="cls-2"><path class="cls-3" d="M114,410.84l7.93,10.9L111,429.69,108.92,443,95.6,440.85l-10.89,7.92-7.92-10.9-13.31-2.1,2.14-13.27-7.93-10.92,10.89-7.92,2.13-13.28L84,392.48l10.9-7.91,7.92,10.89,13.3,2.12Zm-13.9-10.91-6.3-8.67-8.62,6.27-10.5-1.69L73,406.37l-8.67,6.3,6.29,8.66-1.69,10.5,10.54,1.68,6.27,8.63,8.63-6.27,10.53,1.67L106.59,427l8.62-6.26-6.27-8.64,1.67-10.54Z"/><path class="cls-3" d="M105.5,412.92l5.14,7.08-7.08,5.15-1.33,8.61-8.64-1.37-7.13,5.18-5.14-7.08-8.65-1.37L74,420.48,68.9,413.4,76,408.26l1.41-8.69L86,400.94l7.08-5.14,5.14,7.08,8.65,1.37Zm-9.34-7.6-4.11-5.67-5.62,4.09-6.79-1.08-1.16,6.92-5.62,4.08L77,419.32l-1.06,6.83,6.86,1.09,4.08,5.62,5.6-4.06,6.85,1.08,1.09-6.85,5.62-4.09-4.11-5.65,1.15-6.85Z"/><polygon class="cls-3" points="96.69 417.4 94.23 419.18 93.77 422.18 90.76 421.7 88.31 423.48 86.53 421.03 83.54 420.56 84.01 417.56 82.23 415.11 84.68 413.33 85.16 410.33 88.15 410.81 90.6 409.03 92.38 411.48 95.38 411.96 94.9 414.95 96.69 417.4"/></g><g class="cls-2"><path class="cls-3" d="M293.19,657.61l-7.93-10.9-10.93,7.95-13.27-2.13L259,665.84l-10.89,7.92L256,684.65,253.87,698,267.14,700,275.08,711,286,703l13.3,2.08,2.11-13.31,10.89-7.92L304.36,673l2.1-13.31Zm6.07,16.6,6.3,8.67-8.62,6.26-1.64,10.51L284.77,698l-8.67,6.3-6.3-8.66L259.29,694,261,683.44l-6.27-8.63,8.63-6.27L265,658l10.54,1.66,8.63-6.27,6.27,8.64L301,663.71Z"/><path class="cls-3" d="M288.57,665.06,283.43,658l-7.08,5.14-8.61-1.4-1.36,8.65-7.13,5.18,5.14,7.08L263,691.27l8.65,1.37,5.14,7.08,7.08-5.14,8.69,1.33,1.37-8.64,7.08-5.15-5.14-7.07,1.37-8.65Zm4.35,11.23L297,682,291.41,686l-1.07,6.79-6.93-1-5.62,4.09-4.12-5.67-6.82-1.1,1.09-6.86-4.09-5.62,5.59-4.06,1.09-6.86,6.86,1.09,5.62-4.09,4.11,5.66,6.87,1Z"/><polygon class="cls-3" points="281.59 672.06 279.14 673.84 276.15 673.36 275.67 676.36 273.22 678.14 275 680.59 274.53 683.58 277.52 684.06 279.3 686.51 281.75 684.73 284.75 685.2 285.23 682.21 287.68 680.43 285.9 677.98 286.36 674.98 283.38 674.51 281.59 672.06"/></g><g class="cls-2"><path class="cls-3" d="M256,410.84,248,421.74,259,429.69,261,443l13.32-2.11,10.89,7.92,7.92-10.9,13.31-2.1-2.14-13.27,7.93-10.92-10.89-7.92-2.13-13.28-13.31,2.1L275,384.57l-7.92,10.89-13.3,2.12Zm13.9-10.91,6.3-8.67,8.62,6.27,10.5-1.69L297,406.37l8.67,6.3-6.29,8.66,1.69,10.5-10.54,1.68-6.27,8.63-8.63-6.27-10.53,1.67L263.37,427l-8.62-6.26L261,412.1l-1.67-10.54Z"/><path class="cls-3" d="M264.46,412.92,259.32,420l7.08,5.15,1.33,8.61,8.64-1.37,7.13,5.18,5.14-7.08,8.65-1.37-1.37-8.64,5.14-7.08L294,408.26l-1.42-8.69-8.65,1.37-7.08-5.14-5.14,7.08-8.65,1.37Zm9.34-7.6,4.11-5.67,5.62,4.09,6.79-1.08,1.16,6.92,5.62,4.08L293,419.32l1.06,6.83-6.86,1.09-4.08,5.62-5.59-4.06-6.86,1.08L269.57,423,264,418.94l4.11-5.65-1.15-6.85Z"/><polygon class="cls-3" points="273.27 417.4 275.73 419.18 276.19 422.18 279.2 421.7 281.65 423.48 283.43 421.03 286.42 420.56 285.95 417.56 287.73 415.11 285.28 413.33 284.8 410.33 281.81 410.81 279.36 409.03 277.58 411.48 274.58 411.96 275.06 414.95 273.27 417.4"/></g><g class="cls-2"><path class="cls-3" d="M76.77,657.61l7.93-10.9,10.93,7.95,13.27-2.13L111,665.84l10.89,7.92L114,684.65,116.1,698,102.82,700,94.88,711,84,703l-13.3,2.08L68.58,691.8l-10.89-7.92L65.6,673l-2.1-13.31Zm-6.07,16.6-6.3,8.67L73,689.14l1.64,10.51L85.19,698l8.67,6.3,6.3-8.66L110.67,694,109,683.44l6.27-8.63-8.63-6.27L105,658l-10.54,1.66-8.63-6.27L79.54,662,69,663.71Z"/><path class="cls-3" d="M81.39,665.06,86.53,658l7.08,5.14,8.61-1.4,1.36,8.65,7.13,5.18-5.14,7.08,1.37,8.64-8.65,1.37-5.14,7.08-7.08-5.14-8.69,1.33L76,687.27l-7.08-5.15,5.14-7.07L72.7,666.4ZM77,676.29,72.92,682,78.55,686l1.07,6.79,6.93-1,5.62,4.09,4.12-5.67,6.82-1.1L102,682.25l4.09-5.62-5.59-4.06-1.09-6.86-6.86,1.09L87,662.71l-4.11,5.66-6.87,1Z"/><polygon class="cls-3" points="88.37 672.06 90.82 673.84 93.81 673.36 94.29 676.36 96.74 678.14 94.96 680.59 95.43 683.58 92.44 684.06 90.66 686.51 88.2 684.73 85.21 685.2 84.73 682.21 82.28 680.43 84.06 677.98 83.6 674.98 86.59 674.51 88.37 672.06"/></g><g class="cls-2"><path class="cls-3" d="M208,700.24V686.76H194.51L185,677.24l-9.53,9.53H162v13.47l-9.53,9.53,9.53,9.47v13.5H175.5l9.53,9.5,9.53-9.53H208V719.24l9.52-9.53Zm-4.84,17V728H192.53l-7.5,7.54L177.49,728H166.77V717.24l-7.54-7.5,7.54-7.55V691.52h10.67L185,684l7.55,7.54h10.66v10.67l7.55,7.55Z"/><path class="cls-3" d="M199.92,703.55V694.8h-8.75L185,688.61l-6.19,6.19H170v8.75l-6.19,6.19,6.19,6.19v8.75h8.75l6.25,6.19,6.19-6.19H200v-8.75l6.19-6.19Zm-3.08,11.64v7h-7L185,727.05l-5-4.91h-6.95v-7l-4.87-4.9,4.91-4.91v-7H180l4.91-4.91,4.91,4.91h7v7l4.95,4.87Z"/><polygon class="cls-3" points="190.16 705.11 187.13 705.11 184.99 702.96 182.84 705.11 179.81 705.11 179.81 708.14 177.67 710.28 179.81 712.43 179.81 715.46 182.84 715.46 184.99 717.6 187.13 715.46 190.16 715.46 190.16 712.43 192.3 710.28 190.16 708.14 190.16 705.11"/></g><g class="cls-2"><path class="cls-3" d="M207.94,395.27v13.48H194.42l-9.48,9.52-9.53-9.53H161.94V395.27l-9.53-9.53,9.53-9.47v-13.5h13.47l9.53-9.5,9.53,9.53h13.47v13.47l9.52,9.53Zm-4.84-17V367.56H192.44l-7.5-7.54-7.54,7.54H166.68v10.71l-7.54,7.5,7.54,7.55V404h10.67l7.54,7.54,7.55-7.54H203.1V393.32l7.55-7.55Z"/><path class="cls-3" d="M199.83,392v8.75h-8.75l-6.14,6.19-6.19-6.19h-8.81V392l-6.19-6.19,6.19-6.19v-8.75h8.75l6.25-6.19,6.19,6.19h8.75v8.75l6.19,6.19Zm-3.08-11.64v-7H189.8l-4.86-4.86-5,4.91H173v7l-4.87,4.9,4.91,4.91v6.95h6.91l4.91,4.91,4.91-4.91h7v-7l4.95-4.87Z"/><polygon class="cls-3" points="190.07 390.4 187.04 390.4 184.9 392.55 182.75 390.4 179.72 390.4 179.72 387.37 177.58 385.23 179.72 383.08 179.72 380.05 182.75 380.05 184.9 377.91 187.04 380.05 190.07 380.05 190.07 383.08 192.21 385.23 190.07 387.37 190.07 390.4"/></g><g class="cls-2"><path class="cls-3" d="M47.08,616.81l12.82-4.17-4.18-12.86,6.13-11.95-12-6.12L45.68,568.9l-12.82,4.16-12-6.12-6.07,12L2,583.1l4.16,12.81L0,607.91,12,614l4.16,12.81L29,622.68l12,6.11Zm-17.66.65-10.19,3.31-3.29-10.14-9.49-4.8,4.84-9.5L8,586.13l10.18-3.31,4.8-9.49,9.51,4.84,10.15-3.3L45.92,585l9.5,4.84-4.84,9.51,3.3,10.14-10.15,3.3-4.85,9.51Z"/><path class="cls-3" d="M41.43,610.12l8.32-2.71L47,599.09l4-7.75-7.8-4L40.51,579l-8.32,2.7-7.8-4-4,7.8-8.32,2.7,2.71,8.32-4,7.86,7.8,4,2.71,8.32,8.32-2.7,7.8,4Zm-12,.67L22.75,613l-2.15-6.61-6.13-3.12L17.6,597l-2.15-6.61,6.66-2.17L25.26,582l6.19,3.15L38.06,583l2.14,6.57,6.18,3.16-3.15,6.18,2.15,6.61-6.65,2.16-3.1,6.22Z"/><polygon class="cls-3" points="36.93 601.32 35.99 598.44 37.37 595.74 34.66 594.36 33.73 591.47 30.85 592.41 28.15 591.04 26.77 593.74 23.88 594.67 24.82 597.55 23.45 600.26 26.15 601.63 27.08 604.52 29.96 603.58 32.67 604.95 34.04 602.25 36.93 601.32"/></g><g class="cls-2"><path class="cls-3" d="M337.1,522.48l-12.82,4.17-4.18-12.86-12-6.08,6.12-12-4.16-12.81,12.81-4.17,6.12-12L341,472.86l12.84-4.17L358,481.5l12,6.13-6.12,12L368,512.45l-12.81,4.16-6.13,12Zm14.67-9.86,10.18-3.3-3.29-10.14,4.85-9.47-9.5-4.84-3.31-10.19L340.51,478l-9.46-4.86-4.85,9.51-10.15,3.3,3.3,10.14-4.84,9.5,9.5,4.85,3.3,10.14,10.14-3.29,9.52,4.84Z"/><path class="cls-3" d="M337.74,513.75l-8.32,2.7-2.71-8.32-7.78-3.93,4-7.8L320.18,488l8.32-2.7,4-7.8,7.79,4,8.33-2.7,2.7,8.32,7.82,4-4,7.8,2.71,8.32L349.53,510l-4,7.8Zm10.12-6.53,6.65-2.16-2.14-6.61,3.12-6.13-6.22-3.24-2.15-6.61-6.65,2.17-6.17-3.12-3.15,6.19-6.61,2.14,2.13,6.58-3.15,6.18,6.19,3.16,2.15,6.61,6.64-2.16,6.17,3.2Z"/><polygon class="cls-3" points="336.2 503.98 335.27 501.1 332.56 499.73 333.94 497.02 333.01 494.14 335.89 493.2 337.26 490.5 339.97 491.88 342.85 490.94 343.79 493.82 346.49 495.2 345.11 497.9 346.05 500.78 343.17 501.72 341.78 504.42 339.09 503.05 336.2 503.98"/></g><g class="cls-2"><path class="cls-3" d="M337.12,573l-12.82-4.17-4.17,12.86-12,6.07,6.12,12-4.16,12.81,12.81,4.16,6.12,12,12-6.13,12.84,4.17L358,613.93l12-6.13-6.12-12L368,583l-12.81-4.16-6.12-12Zm14.68,9.85L362,586.11l-3.29,10.14,4.85,9.46-9.5,4.84-3.31,10.2-10.19-3.31-9.46,4.85-4.85-9.5-10.15-3.3,3.3-10.15-4.84-9.5L324,585l3.29-10.14,10.15,3.3L347,573.3Z"/><path class="cls-3" d="M337.77,581.68l-8.33-2.7-2.7,8.32L319,591.23l4,7.8-2.72,8.37,8.32,2.71,4,7.8,7.8-4,8.32,2.71,2.71-8.32,7.82-4-4-7.8,2.71-8.33-8.33-2.7-4-7.8Zm10.11,6.53,6.66,2.16L352.39,597l3.12,6.12-6.21,3.24L347.15,613l-6.66-2.16-6.16,3.12-3.15-6.19-6.61-2.15L326.7,599l-3.15-6.19,6.19-3.15,2.14-6.61,6.65,2.16,6.16-3.2Z"/><polygon class="cls-3" points="336.23 591.45 335.3 594.33 332.59 595.7 333.97 598.41 333.04 601.29 335.92 602.23 337.29 604.92 340 603.55 342.88 604.49 343.81 601.61 346.51 600.22 345.14 597.53 346.08 594.64 343.19 593.71 341.81 591.01 339.12 592.38 336.23 591.45"/></g><g class="cls-2"><path class="cls-3" d="M47.05,478.79,59.87,483l-4.18,12.85,6.13,12-12,6.12L45.65,526.7l-12.81-4.16-12,6.12-6.06-12L1.93,512.5l4.16-12.81L0,487.69l12-6.12,4.16-12.81L29,472.92l12-6.11Zm-17.66-.65L19.2,474.83,15.91,485l-9.49,4.8,4.84,9.5L8,509.47l10.18,3.31,4.81,9.49,9.51-4.84,10.14,3.3,3.3-10.15,9.5-4.84-4.83-9.51,3.29-10.14-10.15-3.3-4.85-9.51Z"/><path class="cls-3" d="M41.4,485.48l8.32,2.7L47,496.51l4,7.75-7.8,4-2.73,8.38-8.32-2.7-7.8,4-4-7.8-8.32-2.7,2.7-8.32-4-7.86,7.8-4,2.71-8.33,8.32,2.71,7.8-4Zm-12-.67-6.66-2.16-2.15,6.61-6.12,3.12,3.12,6.27-2.15,6.61,6.66,2.17,3.16,6.14,6.18-3.15L38,512.57,40.17,506l6.19-3.15-3.16-6.18,2.15-6.61-6.65-2.16-3.1-6.22Z"/><polygon class="cls-3" points="36.9 494.28 35.96 497.16 37.34 499.86 34.64 501.24 33.7 504.12 30.82 503.19 28.12 504.56 26.74 501.86 23.86 500.93 24.79 498.04 23.42 495.34 26.12 493.96 27.05 491.08 29.94 492.02 32.64 490.65 34.02 493.34 36.9 494.28"/></g><path class="cls-1" d="M1010.36,194.47,1039,159l-44-11.86,2.32-45.52L954.74,117.9,929.86,79.71,905,117.9l-42.59-16.27,2.32,45.52-44,11.86,28.63,35.46-28.63,35.47,44,11.86-2.32,45.52L905,271.05l24.88,38.21,24.88-38.19,42.57,16.27L995,241.82,1039,230ZM1028,162.58l-9.26,12.08-14.58-4.33,9.25-12.07Zm-34.51-10.23,15.79,4.68-11.79,15.48,18.69,5.55-10,13.07-12.69-17.35Zm0,28.24,7.58,10.44-7.58-2.09Zm0,12.49,5,1.39-5,1.39Zm0,6.93,7.58-2.09-7.58,10.44Zm-17.36-84,14.36-5-.39,15.21-14.32,5.07Zm-4,1.43-.5,19.49,18.38-6.5-.42,16.47-20.39-6.64-12.6-17.35Zm6,118.9,7.36,2.81-12.27,4ZM968,243.49l-11-15.07,17.21,6.46Zm-9.85-37.77-9,2.68.33,12.89L946,220l.14.18L937.25,217l-7.31,10.62-2-3.08v.23l-5.45-7.73-12.15,4.3.17-3.69-.14.18.24-9.42-9-2.68.22-.07-3.57-1,7.84-10.24L900.37,187l.22.07-2.3-2.89,12.35-3.66-.24-9.43.09.2-.17-3.69,12.17,4.3,5.35-7.76v.23l2-3.08,7.31,10.61,12.15-4.29-.16,3.69.13-.19-.24,9.43,9,2.68-.22.07,3.56,1-7.84,10.23,8,10.21-3.56,1Zm-26.28,50.85V237.93h0L942,253.26l-10.12,3.29Zm12.41.17,4.33,6.52-12.27-4Zm-12-25.45,6.49-9.42,10.79,3.81,1.12,24.78L945.92,252Zm-16.77,25.45,7.94,2.58-12.27,4ZM913.83,252l-4.74-1.54,1.12-24.78L921,221.87l6.49,9.39Zm3.89,1.26,10.13-15.35v18.66Zm-31.23-10.13-12.28-4,7.37-2.77Zm-1-8.21,17.22-6.46-11,15.07Zm-11.21-.06,3.26-4.08,1.63,2.24Zm-4.09-1.29v-12.9l4.91,6.75Zm7.5-9.39-6.26-8.62,17.72-5.76Zm-7.5-12.42V201.11L887.92,206Zm0-14.8v-5l23.91-6.59,7,9.08-7,9.09Zm11.42-44.39-7.37-2.77,12.28-4Zm10.14-7.16,11,15.08L885.49,154Zm-14.26,12.76-3.26-4.08,4.89,1.83Zm11.61,21-17.72-5.76,6.26-8.61Zm-14.05-17.61-4.88,6.7v-12.9ZM887.87,183l-17.73,4.88V177.22Zm27.62-50.77-4.33-6.57,12.27,4Zm12.41.17V151l-10.13-15.34Zm-.41,25.27L921,167.08l-10.84-3.82L909,138.48l4.74-1.54Zm16.82-25.44-7.94-2.58,12.27-4ZM946,137l4.74,1.54-1.17,24.77-10.79,3.81-6.49-9.43Zm-4-1.28L931.9,151V132.38Zm16.68,58.8,7-9.08L989.49,192v5l-23.91,6.6Zm14.55-48.66,12.27,4-7.36,2.77Zm1,8.22L957,160.49l11-15.08Zm15.24,14.23-4.9-6.75,4.9-6.15Zm0,8.91v10.66L971.77,183Zm-4-23.08-3.26,4.08-1.64-2.25Zm-3.41,10.68,6.25,8.61-17.72,5.76Zm7.41,36.34v10.65L971.77,206Zm-1.2,14.45L982,224.18,970.56,209.8Zm-6.11,15.22,3.25,4.08L980.54,233Zm2.44-3.36,4.9-6.75v12.9Zm-29.48-99.65,7.59,10.44-7.94-2.58Zm-.54,12,10.13,3.29-11,15.08Zm-1.11,26.33,23.22-8.72,2.93,4-15.47,19.39-11-3.26Zm-2.6-31.75-2.64-.86,2.88-4.36Zm-21-43.08,8.6,12.54-8.62,12.53-8.63-12.53Zm-11.1,16.06,11.06,16.06,11-16.06,9.34,13.57-20.39,6.62-20.36-6.62Zm-7.3,26.16-2.64.86-.23-5.22Zm-4.94,44-11,3.26-15.47-19.39,2.92-4,23.22,8.72Zm-1.46-37.77.83,18.37L895,143.06Zm-.19-4.14L897,138.21l7.58-10.44ZM903.1,123l-12.61,17.3-20.4,6.63-.41-16.47,18.38,6.5-.5-19.49Zm-71.4,39.62,14.58-4.32,9.21,12.07-14.58,4.33Zm0,63.78,9.25-12.1,14.54,4.36-9.25,12.07Zm34.47,10.24-15.78-4.69,11.85-15.47-18.68-5.55,10-13.07,12.6,17.34Zm0-28.24-7.58-10.44,7.58,2.09Zm0-12.5-5-1.39,5-1.39Zm0-6.92L858.59,191l7.58-10.44Zm0-15.16-12.6,17.35-10-13.07,18.68-5.55L850.39,157l15.78-4.68Zm17.32-57.73.39,15.21-14.34-5.07L869.15,111Zm0,156.85L869.19,278l.39-15.2,14.34-5.07Zm4-1.43L888,252l-18.38,6.5L870,242l20.47,6.63L903.1,266Zm17-10.29-7.58-10.44,7.93,2.58Zm.54-12-10.12-3.29,11-15.08Zm1.16-26.34L883,231.56l-2.92-4,15.46-19.39,11,3.26Zm2.6,31.76,2.7.86-2.88,4.36Zm21,43.07-8.63-12.53,8.63-12.53,8.7,12.53Zm11.05-16.06-11-16.05-11.06,16.05-9.3-13.56,20.39-6.63,20.39,6.63Zm7.3-26.15,2.64-.86.24,5.22Zm5-44.06,11-3.26,15.47,19.39-2.93,4-23.19-8.69Zm1.45,37.78-.83-18.37,11,15.08Zm.19,4.14,7.94-2.58-7.59,10.44ZM956.59,266l12.6-17.34L989.58,242l.42,16.47L971.62,252l.5,19.49Zm19.56,6.92-.38-15.21,14.34,5.07.38,15.2Zm17.34-36.3V215.16l12.6-17.34,10,13.07-18.6,5.55,11.86,15.47Zm10.64-18,14.61-4.34,9.26,12.07-14.59,4.33Z"/><g class="cls-2"><path class="cls-3" d="M858.88,57.56l7.92,10.91-10.94,8-2.07,13.27-13.31-2.11-10.9,7.92-7.92-10.9-13.31-2.11,2.14-13.26-7.93-10.92,10.9-7.92,2.12-13.29,13.31,2.11,10.9-7.91,7.92,10.89L861,44.31ZM845,46.66,838.67,38l-8.62,6.27-10.5-1.69L817.88,53.1l-8.67,6.3,6.29,8.66-1.69,10.5,10.54,1.68,6.27,8.63,8.63-6.27,10.54,1.67,1.67-10.54,8.63-6.27-6.28-8.63,1.68-10.54Z"/><path class="cls-3" d="M850.37,59.65l5.14,7.08-7.08,5.15-1.32,8.61-8.65-1.37-7.13,5.18-5.14-7.08-8.65-1.37,1.37-8.64-5.14-7.08L820.85,55l1.42-8.68,8.64,1.37L838,42.53l5.14,7.08L851.78,51ZM841,52.05l-4.12-5.67-5.62,4.09-6.79-1.08-1.16,6.91-5.62,4.09,4.11,5.66-1.06,6.83L827.64,74l4.09,5.62,5.59-4.06,6.86,1.08,1.08-6.85,5.62-4.09L846.78,60l1.14-6.84Z"/><polygon class="cls-3" points="841.56 64.13 839.11 65.91 838.64 68.91 835.63 68.43 833.18 70.21 831.4 67.76 828.41 67.29 828.88 64.29 827.1 61.84 829.55 60.06 830.03 57.06 833.02 57.54 835.47 55.76 837.25 58.21 840.25 58.69 839.78 61.68 841.56 64.13"/></g><g class="cls-2"><path class="cls-3" d="M1038.06,304.34l-7.92-10.9-10.94,7.94-13.27-2.12-2.1,13.31-10.9,7.91,7.92,10.9-2.11,13.31,13.27,2.06,7.94,10.92,10.9-7.91,13.29,2.08,2.11-13.31,10.9-7.92-7.92-10.9,2.1-13.3Zm6.08,16.6,6.29,8.67-8.62,6.26-1.64,10.51-10.53-1.67L1021,351l-6.3-8.66-10.51-1.64,1.67-10.54-6.28-8.63,8.64-6.27,1.67-10.53,10.54,1.66,8.62-6.27,6.27,8.64,10.55,1.67Z"/><path class="cls-3" d="M1033.44,311.79l-5.14-7.08-7.08,5.14-8.6-1.4-1.37,8.65-7.13,5.18,5.14,7.08-1.37,8.64,8.65,1.37,5.14,7.08,7.08-5.14,8.7,1.33,1.37-8.64,7.08-5.15-5.15-7.08,1.37-8.64Zm4.35,11.23,4.12,5.66-5.62,4.08-1.08,6.79-6.93-1-5.62,4.08-4.12-5.66-6.82-1.1,1.09-6.86-4.09-5.62,5.59-4.06,1.09-6.86,6.86,1.08,5.62-4.08,4.11,5.65,6.87,1Z"/><polygon class="cls-3" points="1026.47 318.79 1024.02 320.57 1021.02 320.09 1020.54 323.09 1018.09 324.87 1019.87 327.32 1019.4 330.31 1022.39 330.79 1024.18 333.24 1026.63 331.46 1029.63 331.93 1030.1 328.94 1032.55 327.16 1030.77 324.71 1031.24 321.71 1028.25 321.24 1026.47 318.79"/></g><g class="cls-2"><path class="cls-3" d="M1000.83,57.56,992.9,68.47l10.94,8,2.08,13.27,13.31-2.11,10.9,7.92L1038,84.6l13.31-2.11-2.14-13.26,7.94-10.92-10.9-7.92-2.13-13.29-13.31,2.11-10.9-7.91L1012,42.19l-13.31,2.12Zm13.91-10.9L1021,38l8.63,6.27,10.49-1.69,1.67,10.53,8.68,6.3-6.3,8.66,1.69,10.5-10.54,1.68-6.27,8.63-8.63-6.27-10.53,1.67-1.68-10.54-8.62-6.27,6.27-8.63-1.67-10.54Z"/><path class="cls-3" d="M1009.33,59.65l-5.14,7.08,7.08,5.15,1.33,8.61,8.65-1.37,7.12,5.18,5.15-7.08,8.64-1.37-1.37-8.64,5.15-7.08L1038.86,55l-1.42-8.68-8.65,1.37-7.08-5.14-5.14,7.08L1007.92,51Zm9.34-7.6,4.11-5.67,5.63,4.09,6.78-1.08,1.16,6.91,5.63,4.09-4.12,5.66,1.06,6.83L1032.06,74,1028,79.59l-5.59-4.06-6.86,1.08-1.09-6.85-5.62-4.09,4.11-5.66-1.14-6.84Z"/><polygon class="cls-3" points="1018.15 64.13 1020.6 65.91 1021.07 68.91 1024.07 68.43 1026.52 70.21 1028.3 67.76 1031.29 67.29 1030.82 64.29 1032.61 61.84 1030.15 60.06 1029.67 57.06 1026.68 57.54 1024.23 55.76 1022.45 58.21 1019.46 58.69 1019.93 61.68 1018.15 64.13"/></g><g class="cls-2"><path class="cls-3" d="M821.64,304.34l7.93-10.9,10.94,7.94,13.26-2.12,2.11,13.31,10.9,7.91-7.92,10.9L861,344.69l-13.28,2.06-7.93,10.92-10.9-7.91-13.3,2.08-2.1-13.31-10.9-7.92,7.92-10.9-2.1-13.3Zm-6.07,16.6-6.3,8.67,8.63,6.26,1.63,10.51,10.53-1.67,8.68,6.3,6.29-8.66,10.51-1.64-1.66-10.54,6.27-8.63-8.63-6.27-1.67-10.53-10.54,1.66-8.62-6.27-6.28,8.64-10.54,1.67Z"/><path class="cls-3" d="M826.26,311.79l5.14-7.08,7.08,5.14,8.61-1.4,1.37,8.65,7.12,5.18-5.14,7.08,1.37,8.64-8.65,1.37L838,346.45l-7.08-5.14-8.69,1.33L820.88,334l-7.08-5.15,5.14-7.08-1.37-8.64ZM821.91,323l-4.11,5.66,5.62,4.08,1.07,6.79,6.93-1,5.63,4.08,4.11-5.66,6.82-1.1L846.9,329l4.08-5.62-5.59-4.06-1.09-6.86-6.85,1.08-5.63-4.08-4.11,5.65-6.86,1Z"/><polygon class="cls-3" points="833.24 318.79 835.69 320.57 838.68 320.09 839.16 323.09 841.61 324.87 839.83 327.32 840.3 330.31 837.31 330.79 835.53 333.24 833.08 331.46 830.08 331.93 829.61 328.94 827.15 327.16 828.94 324.71 828.47 321.71 831.46 321.24 833.24 318.79"/></g><g class="cls-2"><path class="cls-3" d="M952.9,347V333.49H939.38L929.9,324l-9.53,9.53H906.9V347l-9.53,9.53L906.9,366v13.5h13.47l9.53,9.5,9.53-9.53H952.9V366l9.52-9.53Zm-4.84,17v10.71H937.4l-7.5,7.54-7.54-7.54H911.64V364l-7.54-7.5,7.54-7.55V338.25h10.67l7.54-7.54,7.55,7.54h10.66v10.67l7.55,7.55Z"/><path class="cls-3" d="M944.79,350.28v-8.75H936l-6.14-6.19-6.19,6.19H914.9v8.75l-6.19,6.19,6.19,6.19v8.75h8.75l6.25,6.19,6.19-6.19h8.75v-8.75l6.19-6.19Zm-3.08,11.64v7h-7l-4.86,4.86-5-4.91H918v-7l-4.87-4.9,4.91-4.91v-6.95h6.91l4.91-4.91,4.91,4.91h6.95v7l5,4.87Z"/><polygon class="cls-3" points="935.03 351.84 932 351.84 929.86 349.69 927.71 351.84 924.68 351.84 924.68 354.87 922.54 357.01 924.68 359.16 924.68 362.19 927.71 362.19 929.86 364.33 932 362.19 935.03 362.19 935.03 359.16 937.17 357.01 935.03 354.87 935.03 351.84"/></g><g class="cls-2"><path class="cls-3" d="M952.81,42V55.48H939.29L929.81,65l-9.53-9.53H906.81V42l-9.53-9.53L906.81,23V9.5h13.47L929.81,0l9.53,9.53h13.47V23l9.52,9.53ZM948,25V14.29H937.31l-7.5-7.54-7.54,7.54H911.55V25L904,32.5l7.54,7.55V50.72h10.67l7.54,7.54,7.55-7.54H948V40.05l7.55-7.55Z"/><path class="cls-3" d="M944.7,38.69v8.75H936l-6.14,6.19-6.19-6.19h-8.81V38.69l-6.19-6.19,6.19-6.19V17.56h8.75l6.25-6.19L936,17.56h8.75v8.75l6.19,6.19Zm-3.08-11.64v-7h-7l-4.86-4.86-5,4.91h-6.95v7L913,32l4.91,4.91v7h6.91l4.91,4.91,4.91-4.91h7v-7L946.53,32Z"/><polygon class="cls-3" points="934.94 37.13 931.91 37.13 929.77 39.28 927.62 37.13 924.59 37.13 924.59 34.1 922.45 31.96 924.59 29.81 924.59 26.78 927.62 26.78 929.77 24.64 931.91 26.78 934.94 26.78 934.94 29.81 937.08 31.96 934.94 34.1 934.94 37.13"/></g><g class="cls-2"><path class="cls-3" d="M792,263.54l12.82-4.17-4.18-12.86,6.13-12-12-6.11-4.16-12.81-12.81,4.16-12-6.12-6.06,12-12.84,4.17L751,242.64l-6.09,12,12,6.12,4.16,12.81,12.81-4.16,12,6.11Zm-17.66.65L764.1,267.5l-3.29-10.14-9.49-4.8,4.84-9.51-3.31-10.19L763,229.55l4.81-9.49,9.51,4.84,10.14-3.3,3.3,10.15,9.5,4.84-4.83,9.51,3.29,10.14-10.15,3.3-4.85,9.51Z"/><path class="cls-3" d="M786.3,256.85l8.32-2.71-2.7-8.32,4-7.75-7.8-4-2.73-8.37-8.32,2.7-7.8-4-4,7.79L757,235l2.7,8.32-4,7.86,7.8,4,2.71,8.32,8.32-2.7,7.8,4Zm-12,.66-6.66,2.17-2.15-6.61L759.35,250l3.12-6.28-2.15-6.61L767,234.9l3.16-6.14,6.18,3.15,6.61-2.15,2.14,6.57,6.19,3.15-3.16,6.19,2.15,6.61-6.65,2.16-3.1,6.21Z"/><polygon class="cls-3" points="781.8 248.05 780.86 245.16 782.25 242.47 779.54 241.08 778.6 238.2 775.72 239.14 773.02 237.76 771.64 240.47 768.76 241.4 769.69 244.28 768.32 246.99 771.02 248.36 771.96 251.24 774.84 250.31 777.54 251.68 778.92 248.98 781.8 248.05"/></g><g class="cls-2"><path class="cls-3" d="M1082,169.21l-12.82,4.17L1065,160.52l-12-6.08,6.11-12-4.16-12.81,12.81-4.16,6.12-12,12,6.14,12.84-4.17,4.16,12.81,12,6.13-6.11,12,4.16,12.81L1100,163.34l-6.12,12Zm14.67-9.86,10.19-3.31-3.3-10.13,4.86-9.47-9.51-4.84-3.31-10.19-10.18,3.31-9.47-4.86-4.85,9.51-10.15,3.29,3.3,10.15-4.84,9.5,9.5,4.85,3.3,10.14,10.15-3.3,9.51,4.85Z"/><path class="cls-3" d="M1082.61,160.47l-8.32,2.71-2.71-8.32-7.78-3.93,4-7.8-2.72-8.38,8.32-2.7,4-7.8,7.8,4,8.32-2.7,2.7,8.32,7.82,4-4,7.8,2.7,8.32-8.32,2.71-4,7.8Zm10.12-6.52,6.66-2.17-2.15-6.61,3.12-6.12-6.22-3.24L1092,129.2l-6.66,2.17-6.17-3.12-3.15,6.19-6.61,2.14,2.14,6.58-3.16,6.18,6.19,3.15,2.15,6.61,6.65-2.16,6.16,3.21Z"/><polygon class="cls-3" points="1081.08 150.71 1080.14 147.83 1077.43 146.46 1078.82 143.75 1077.88 140.87 1080.76 139.93 1082.13 137.23 1084.84 138.6 1087.72 137.67 1088.66 140.55 1091.36 141.93 1089.98 144.63 1090.92 147.51 1088.04 148.45 1086.66 151.15 1083.96 149.77 1081.08 150.71"/></g><g class="cls-2"><path class="cls-3" d="M1082,219.67l-12.82-4.16L1065,228.37l-12,6.07,6.12,12L1055,259.26l12.81,4.16,6.12,12,11.95-6.14,12.84,4.18,4.16-12.81,12-6.13-6.12-12,4.17-12.81-12.81-4.16-6.13-12Zm14.67,9.86,10.18,3.31L1103.56,243l4.85,9.46-9.5,4.84-3.31,10.2-10.19-3.31L1076,269l-4.85-9.5-10.15-3.3,3.3-10.15-4.84-9.5,9.5-4.85,3.3-10.14,10.14,3.3,9.52-4.85Z"/><path class="cls-3" d="M1082.64,228.41l-8.32-2.7-2.71,8.32-7.78,3.92,4,7.8-2.72,8.38,8.32,2.71,4,7.8,7.79-4,8.33,2.71,2.7-8.32,7.82-4-4-7.8,2.71-8.32-8.32-2.7-4-7.8Zm10.12,6.53,6.65,2.16-2.14,6.61,3.12,6.12-6.22,3.24-2.15,6.61-6.65-2.16-6.17,3.12-3.15-6.19-6.61-2.15,2.13-6.57-3.15-6.19,6.19-3.15,2.15-6.61,6.64,2.16,6.17-3.2Z"/><polygon class="cls-3" points="1081.11 238.18 1080.17 241.06 1077.46 242.43 1078.84 245.14 1077.91 248.02 1080.79 248.95 1082.16 251.65 1084.87 250.28 1087.75 251.22 1088.69 248.34 1091.39 246.95 1090.01 244.25 1090.95 241.37 1088.07 240.44 1086.68 237.74 1083.99 239.11 1081.11 238.18"/></g><g class="cls-2"><path class="cls-3" d="M791.92,125.52l12.82,4.16-4.17,12.86,6.12,12-12,6.12-4.16,12.81-12.81-4.16-12,6.12-6.06-12-12.84-4.18L751,146.41l-6.09-12,12-6.11L761,115.49l12.81,4.16,12-6.11Zm-17.66-.65-10.19-3.31-3.29,10.14-9.49,4.8,4.84,9.5-3.31,10.2L763,159.51l4.8,9.48,9.51-4.83,10.15,3.29,3.29-10.14,9.51-4.84L795.43,143l3.29-10.14-10.15-3.3L783.73,120Z"/><path class="cls-3" d="M786.27,132.21l8.32,2.7-2.7,8.32,4,7.76-7.8,4-2.72,8.38-8.33-2.7-7.8,4-4-7.8-8.32-2.7,2.7-8.32-3.95-7.86,7.8-4,2.7-8.32,8.32,2.71,7.8-4Zm-12-.67-6.66-2.16L765.44,136l-6.12,3.12,3.12,6.27L760.3,152l6.65,2.16,3.16,6.15,6.19-3.15,6.61,2.15,2.13-6.58,6.19-3.15-3.15-6.19,2.14-6.61-6.65-2.16-3.1-6.21Z"/><polygon class="cls-3" points="781.77 141.01 780.83 143.89 782.22 146.59 779.51 147.97 778.57 150.85 775.69 149.92 772.99 151.29 771.61 148.59 768.73 147.66 769.66 144.77 768.29 142.07 770.99 140.69 771.93 137.81 774.81 138.75 777.51 137.38 778.89 140.07 781.77 141.01"/></g></g></g></svg>