<!-- Generator: Adobe Illustrator 23.0.2, SVG Export Plug-In  -->
<svg version="1.1" xmlns="http://www.w3.org/2000/svg" xmlns:xlink="http://www.w3.org/1999/xlink" x="0px" y="0px"
    width="9.8px" height="9.8px" viewBox="0 0 9.8 9.8" style="enable-background:new 0 0 9.8 9.8;" xml:space="preserve">
    <style type="text/css">
        .st0 {
            stroke: #fec601e1;
            stroke-width: 0.25;
            stroke-miterlimit: 10;
        }

        .st1 {
            fill: #fec601e1;
        }
    </style>
    <defs>
    </defs>
    <circle class="st0" cx="4.9" cy="4.9" r="4.8" />
    <path class="st1" d="M4.9,9.7c-2.6,0-4.8-2.1-4.8-4.8c0-2.6,2.1-4.8,4.8-4.8c2.6,0,4.8,2.1,4.8,4.8C9.7,7.5,7.5,9.7,4.9,9.7z
	 M4.9,0.2c-2.6,0-4.7,2.1-4.7,4.7c0,2.6,2.1,4.7,4.7,4.7c2.6,0,4.7-2.1,4.7-4.7C9.6,2.3,7.5,0.2,4.9,0.2z" />
    <path id="XMLID_18_" class="st1" d="M6.2,6.4L6,6.4C6.1,6.4,6.1,6.4,6.2,6.4z" />
    <path id="XMLID_17_" class="st1" d="M4.4,5.6c0,0-0.1-0.1-0.4,0.2c0,0,0.3-0.4,0.6-0.1C4.7,5.8,4.7,5.8,4.5,7
	C4.3,8.1,4.2,8.6,4.1,8.7C4,8.8,4,8.8,3.7,8.7C3.4,8.6,2.2,8.2,2,7.5c0,0,0.2-0.2,0.2-0.2c0,0,0.6,0.8,1.7,1c0,0,0.5-1.9-0.2-2
	c0,0,0.3-0.1,0.4,0.3c0.1,0.3,0.1,0.8,0,1.1c0,0,0.4-1.4,0.4-1.8C4.6,5.9,4.6,5.6,4.4,5.6z" />
    <path id="XMLID_16_" class="st1" d="M3.8,4.8c0,0-0.3-0.1-0.6-0.3C2.8,4.4,2.7,4.4,2.7,4.4L1.5,3.8c0.1,0,0.6,0.2,0.8,0.3
	C2.5,4.2,4,4.7,4.1,4.8C4.2,4.9,4.2,5,4.2,5.1c0,0.1-0.1,0.1-0.2,0.2c0,0,0.2-0.2,0.1-0.4C4.1,4.9,4,4.8,3.8,4.8z" />
    <path id="XMLID_15_" class="st1" d="M1.5,6.3C1.2,6.4,1.2,6,1.2,6C1,5.2,1.1,4.6,1.2,4.2c0.1-0.4,0.2-0.4,0.3-0.4
	C1.6,3.9,1.7,4,1.7,4C1.1,5,1.6,6.1,1.6,6.1c1.3-0.6,1.7-0.7,1.7-1c0-0.3-0.6-0.6-0.6-0.6c1,0.4,0.6,0.9,0.4,1
	C3,5.6,2.2,5.9,2.2,5.9L4,5.4C4,5.4,1.7,6.3,1.5,6.3z" />
    <path id="XMLID_14_" class="st1" d="M2.2,2.7c0-0.1,0-0.2,0.2-0.4c0.2-0.2,1-0.9,1.9-0.9c0.1,0,0.2,0.3,0.2,0.6
	c0,0.3,0.3,2.2,0.3,2.3c0,0.1,0,0.2-0.1,0.3c0,0,0.1-0.2-0.2-1.6c0,0,0,0.1,0,0.3c0,0.2,0,0.7-0.4,0.8c0,0-0.2,0-0.4-0.1
	c0,0,0.6,0.2,0.6-0.3c0.1-0.5,0.1-0.8,0-1.7c0,0-1,0.1-1.8,1c0,0,0,0.1,0.1,0.1C2.4,2.9,2.2,2.7,2.2,2.7z" />
    <g id="XMLID_13_">
        <path class="st1" d="M4.9,5.6c-0.3,0-0.5-0.2-0.5-0.5c0-0.3,0.2-0.5,0.5-0.5c0.3,0,0.5,0.2,0.5,0.5C5.4,5.4,5.2,5.6,4.9,5.6z
		 M4.9,4.6c-0.3,0-0.5,0.2-0.5,0.5c0,0.3,0.2,0.5,0.5,0.5c0.3,0,0.5-0.2,0.5-0.5C5.4,4.8,5.2,4.6,4.9,4.6z" />
    </g>
    <path class="st1" d="M5.6,3.8C5.3,3.6,5.4,2.6,5.4,2.6L5.1,4.2c0,0,0,0.2,0.2,0.3c0.1,0.1,0.3,0,0.5-0.2c0.3-0.3,1-0.9,1-0.9
	S6,4,5.6,3.8z M5.4,4.4c-0.1,0-0.2-0.1-0.2-0.2C5.1,4.1,5.2,4,5.4,4c0.1,0,0.2,0.1,0.2,0.2C5.6,4.3,5.5,4.4,5.4,4.4z" />
    <path class="st1" d="M6.3,5c0-0.4,0.9-0.7,0.9-0.7S5.9,4.7,5.8,4.8C5.6,4.9,5.5,5,5.6,5.1c0,0.1,0.3,0.2,0.9,0.4
	C7,5.8,7.2,5.8,7.2,5.8S6.3,5.4,6.3,5z M5.8,5.3c-0.1,0-0.2-0.1-0.2-0.2c0-0.1,0.1-0.2,0.2-0.2c0.1,0,0.2,0.1,0.2,0.2
	C6.1,5.2,6,5.3,5.8,5.3z" />
    <g id="XMLID_12_">
        <path class="st1" d="M4.4,4.5c-0.1,0-0.2-0.1-0.2-0.2C4.2,4.1,4.3,4,4.4,4c0.1,0,0.2,0.1,0.2,0.2C4.7,4.3,4.5,4.5,4.4,4.5z M4.4,4
		C4.3,4,4.2,4.1,4.2,4.2c0,0.1,0.1,0.2,0.2,0.2c0.1,0,0.2-0.1,0.2-0.2C4.6,4.1,4.5,4,4.4,4z" />
    </g>
    <g id="XMLID_11_">
        <path class="st1" d="M3.8,5.4c-0.1,0-0.2-0.1-0.2-0.2c0-0.1,0.1-0.2,0.2-0.2c0.1,0,0.2,0.1,0.2,0.2C4.1,5.3,3.9,5.4,3.8,5.4z
		 M3.8,4.9C3.7,4.9,3.6,5,3.6,5.1c0,0.1,0.1,0.2,0.2,0.2C3.9,5.4,4,5.3,4,5.1C4,5,3.9,4.9,3.8,4.9z" />
    </g>
    <g id="XMLID_10_">
        <path class="st1" d="M4.3,6.1C4.2,6.1,4.1,6,4.1,5.9c0-0.1,0.1-0.2,0.2-0.2c0.1,0,0.2,0.1,0.2,0.2C4.6,6,4.5,6.1,4.3,6.1z M4.3,5.7
		c-0.1,0-0.2,0.1-0.2,0.2c0,0.1,0.1,0.2,0.2,0.2c0.1,0,0.2-0.1,0.2-0.2C4.6,5.8,4.5,5.7,4.3,5.7z" />
    </g>
    <path class="st1"
        d="M5.4,5.6C5.3,5.6,5,5.6,5,6c0,0.4,0.2,1.6,0.2,1.6S5.1,6.4,5.6,6.3C6,6.2,6.4,6.5,6.8,6.8
	C6.8,6.8,5.6,5.6,5.4,5.6z M5.3,6.1C5.2,6.1,5.1,6,5.1,5.9c0-0.1,0.1-0.2,0.2-0.2c0.1,0,0.2,0.1,0.2,0.2C5.5,6,5.4,6.1,5.3,6.1z" />
    <path class="st1" d="M8.7,4C8.6,3.8,8.4,3.8,8.4,3.8L8.1,3.9l0,0L8,4c0,0,0.1,0.2,0.1,0.2c0.2,1.2-0.2,1.8-0.2,1.8L8,6.1L7.9,6
	C8.3,5,8,4.1,8,4l0,0c0.4,1.3-0.1,2-0.1,2C7.5,5.9,6.5,5.4,6.5,5.4c0.1,0.1,0.7,0.5,0.7,0.5L6.3,5.5l0.8,0.3L6.1,5.5
	c0,0,1.7,0.6,2,0.8c0.4,0.1,0.4,0,0.4,0C9,5.1,8.7,4.2,8.7,4z" />
    <path class="st1" d="M7.5,7.3c0,0-1.6-1.4-1.9-1.6c-0.2-0.2-0.4-0.1-0.5,0c0,0,0.2-0.1,0.3,0c0.1,0,0.4,0.3,0.4,0.3
	c0.2,0.1,1,0.8,1,0.8L6.5,6.6L6.2,6.4c0.3,0.2,1,0.7,1,0.7c-0.8,0.9-1.8,1-1.8,1l0,0.1C6.8,8,7.3,7.3,7.3,7.3
	c0.1-0.1,0.3,0.2,0.3,0.2S7.4,7.4,7.4,7.3c-0.1,0,0,0-0.4,0.4C6.5,8.1,5.5,8.4,5.5,8.4c0,0,0,0.3,0,0.3L5.4,8.4c0,0,0,0.2,0.1,0.4
	c0,0.3,0.7,0,1.4-0.4C7.5,8,7.7,7.6,7.7,7.6C7.7,7.4,7.5,7.3,7.5,7.3z" />
    <path id="XMLID_9_" class="st1" d="M4.1,8.7C4.1,8.7,4.1,8.7,4.1,8.7C4.1,8.7,4.1,8.7,4.1,8.7z" />
    <path id="XMLID_8_" class="st1" d="M4.1,8.4C4,8.4,3.5,8.4,3,8C2.5,7.7,2.3,7.4,2.2,7.4c-0.1,0-0.1,0.1-0.1,0.1l0.1-0.2
	c0,0,0.7,0.9,1.8,1C4,8.2,4.2,8.3,4.1,8.4c0.1,0.2,0.1,0.3,0.1,0.3C4.1,8.7,4.1,8.4,4.1,8.4z" />
    <path id="XMLID_7_" class="st1" d="M1.7,4c0,0-0.2,0.4-0.2,0.9c0,0.6,0.1,1.2,0.2,1.3c0,0,0,0-0.1,0.1C1.5,6.3,1.5,6.3,1.5,6.3
	s0.1-0.1,0.1-0.2c0-0.1-0.2-0.6-0.1-1.2C1.4,4.4,1.6,4,1.7,4C1.6,4,1.6,3.9,1.7,4L1.7,4z" />
    <path id="XMLID_6_" class="st1" d="M1.6,3.9L1.6,3.9C1.6,3.9,1.6,3.9,1.6,3.9z" />
    <path id="XMLID_5_" class="st1" d="M3.7,6.3c-0.1,0-0.1,0-0.1,0C3.6,6.3,3.6,6.3,3.7,6.3z" />
    <path id="XMLID_4_" class="st1" d="M3.6,6.3C3.6,6.3,3.5,6.3,3.6,6.3C3.5,6.3,3.5,6.3,3.6,6.3z" />
    <path id="XMLID_3_" class="st1" d="M5.5,6.3C5.5,6.3,5.5,6.3,5.5,6.3C5.5,6.3,5.5,6.3,5.5,6.3z" />
    <path id="XMLID_2_" class="st1" d="M5.5,6.3c0.1-0.1,0.3-0.1,0.6,0c0.3,0.1,1.3,0.9,1.3,0.9l0.2,0.3C7.6,7.5,7.3,7.3,6.5,6.7
	C5.9,6.2,5.6,6.3,5.5,6.3z" />
    <path id="XMLID_1_" class="st1" d="M7.4,2.6c0.2,0.2,0.2,0.2,0.2,0.2L6.9,3.3C6.1,3.9,5.7,3.8,5.7,3.8C6.6,3.6,7.1,3,7.1,3
	C6.6,2.2,5.6,2,5.6,2l0,0C6.4,2,7.1,2.9,7.1,2.9l0.1,0c-0.8-0.9-1.6-1-1.6-1l0,0c0.6,0.1,0.8,0.4,1,0.5c0.2,0.1,0.5,0.5,0.5,0.5
	s0.1,0,0.1,0c0,0-0.5-0.5-0.5-0.5c0.4,0.3,0.6,0.5,0.6,0.5s0.1,0,0.1-0.1c0-0.1-0.2-0.3-0.6-0.5C6.3,1.9,5.6,1.7,5.6,1.7l0.1-0.2
	c0,0.1,0,0.2,0,0.2C6.7,1.8,7.3,2.4,7.4,2.6z" />
</svg>