<svg xmlns="http://www.w3.org/2000/svg" viewBox="0 0 390.21 75.11" fill="#FFF">

    <title>Fichier 1</title>
    <g id="Calque_2" data-name="Calque 2">
        <g id="Calque_1-2" data-name="Calque 1">
            <polygon class="path"
                points="102.2 9.17 102.2 11.62 92.44 11.62 92.44 64.53 55.16 9.17 59.75 9.17 89.79 54.35 89.99 54.35 89.99 11.62 79.31 11.62 79.31 9.17 102.2 9.17" />
            <polyline class="path"
                points="48.21 11.62 35.14 11.62 29.91 9.17 50.85 9.17 92.44 70.92 92.44 75.11 90.47 75.11" />
            <path class="path"
                d="M57.55,69.87V72.2a24.43,24.43,0,0,1-8,1.42q-7.84,0-11.07-4.37a13.69,13.69,0,0,1-3.11-8.55l.19-8.08a15.2,15.2,0,0,0-2.7-8.31q-2.69-4.1-12.18-4.1H14.75V38H23.3a37,37,0,0,0,8.4-.73,7.37,7.37,0,0,0,4.67-3.85q1.73-3.12,1.73-9.91c0-3.71-.58-6.42-1.76-8.12a7.16,7.16,0,0,0-4.24-3.16,29.24,29.24,0,0,0-6.53-.59H3.44V9.17H28.32a43.85,43.85,0,0,1,11.24,1.19,14.89,14.89,0,0,1,7.57,4.91,12.85,12.85,0,0,1,3.18,8.55,12,12,0,0,1-4.67,9.78Q41,37.35,29.87,39.25v.24A27.18,27.18,0,0,1,43,45.57q5.11,4.53,5.1,15.29c0,4.15.49,6.79,1.45,7.92a4.94,4.94,0,0,0,4,1.73A14.87,14.87,0,0,0,57.55,69.87Z" />
            <circle class="cls-1" cx="3.44" cy="70.68" r="3.44" />
            <path class="cls-1"
                d="M109.17,0a4.72,4.72,0,1,0,4.72,4.72A4.72,4.72,0,0,0,109.17,0Zm0,8.33a3.62,3.62,0,1,1,3.62-3.62h0a3.61,3.61,0,0,1-3.62,3.61Z" />
            <path class="cls-1"
                d="M110.4,5.44l.52.12c-.25,1-.77,1.5-1.68,1.5a1.57,1.57,0,0,1-1.34-.69,2.91,2.91,0,0,1-.49-1.71,2.62,2.62,0,0,1,.5-1.67,1.69,1.69,0,0,1,1.37-.66,1.62,1.62,0,0,1,1.64,1.46l-.53.1c-.2-.72-.56-1.08-1.11-1.08a1.07,1.07,0,0,0-.93.5A2.68,2.68,0,0,0,108,4.73a2.38,2.38,0,0,0,.34,1.33,1,1,0,0,0,.9.5C109.84,6.59,110.22,6.22,110.4,5.44Z" />
            <path class="cls-1"
                d="M104.47,74.55V50.93h10a17,17,0,0,1,5.5.63,5.34,5.34,0,0,1,2.75,2.27,6.68,6.68,0,0,1,1,3.72,6.31,6.31,0,0,1-1.56,4.39,7.58,7.58,0,0,1-4.68,2.18,10.79,10.79,0,0,1,2.56,2A26.33,26.33,0,0,1,122.75,70l2.89,4.61H120l-3.45-5.14A30.27,30.27,0,0,0,114,66a3.68,3.68,0,0,0-1.43-1,7.76,7.76,0,0,0-2.4-.26h-1v9.86Zm4.77-13.63h3.53a18.58,18.58,0,0,0,4.28-.29,2.59,2.59,0,0,0,1.34-1,3.11,3.11,0,0,0,.49-1.78,2.84,2.84,0,0,0-.64-1.92,2.87,2.87,0,0,0-1.8-.93c-.38,0-1.54-.08-3.48-.08h-3.72Z" />
            <path class="cls-1" d="M143,74.55V50.93h17.5v4H147.74v5.24H159.6v4H147.74V70.6h13.2v4Z" />
            <path class="cls-1" d="M179.71,74.55V50.93h4.65L194,66.7V50.93h4.45V74.55h-4.8l-9.52-15.41V74.55Z" />
            <path class="cls-1" d="M223.47,74.55V54.92h-7v-4h18.77v4h-7V74.55Z" />
            <path class="cls-1" d="M253.07,74.55V50.93h4.64l9.67,15.77V50.93h4.43V74.55H267l-9.56-15.41V74.55Z" />
            <path class="cls-1"
                d="M290.57,62.88a15.1,15.1,0,0,1,1.08-6.06,11.39,11.39,0,0,1,2.2-3.24,9.25,9.25,0,0,1,3.06-2.12,12.71,12.71,0,0,1,5.09-.94,11,11,0,0,1,8.35,3.24q3.13,3.24,3.14,9t-3.11,8.95a12.44,12.44,0,0,1-16.7,0Q290.58,68.52,290.57,62.88Zm4.92-.16c0,2.68.62,4.7,1.85,6.08a6.1,6.1,0,0,0,4.71,2.07,6,6,0,0,0,4.68-2.05q1.83-2.05,1.83-6.16c0-2.71-.6-4.73-1.78-6.06a6.6,6.6,0,0,0-9.34-.15l-.15.15q-1.82,2-1.82,6.12Z" />
            <path class="cls-1"
                d="M331.91,74.55V50.93h10a17,17,0,0,1,5.5.63,5.34,5.34,0,0,1,2.75,2.27,6.68,6.68,0,0,1,1,3.72,6.31,6.31,0,0,1-1.56,4.39,7.56,7.56,0,0,1-4.67,2.18,10.54,10.54,0,0,1,2.55,2A25.09,25.09,0,0,1,350.19,70l2.89,4.61h-5.61L344,69.43A31.62,31.62,0,0,0,341.51,66a3.68,3.68,0,0,0-1.43-1,7.76,7.76,0,0,0-2.4-.26h-1v9.86Zm4.77-13.63h3.53a19,19,0,0,0,4.26-.27,2.6,2.6,0,0,0,1.33-1,3,3,0,0,0,.49-1.78A2.69,2.69,0,0,0,343.85,55c-.38,0-1.54-.08-3.48-.08h-3.72Z" />
            <path class="cls-1"
                d="M370.4,50.93h8.71a17,17,0,0,1,4.5.45,7.87,7.87,0,0,1,3.56,2.17,10.26,10.26,0,0,1,2.26,3.83A17.27,17.27,0,0,1,390.2,63a15.19,15.19,0,0,1-.73,5,10.2,10.2,0,0,1-2.53,4.17A8.33,8.33,0,0,1,383.59,74a14.61,14.61,0,0,1-4.22.5h-9Zm4.77,4V70.58h3.56a13.23,13.23,0,0,0,2.88-.23,4.41,4.41,0,0,0,1.93-1,5,5,0,0,0,1.24-2.28,15,15,0,0,0,.49-4.33,13.51,13.51,0,0,0-.49-4.2,5.29,5.29,0,0,0-1.35-2.29,4.39,4.39,0,0,0-2.21-1.11,20.44,20.44,0,0,0-3.91-.23Z" />
            <path class="cls-1" d="M104.4,38v-7.2h.89V38Z" />
            <path class="cls-1"
                d="M109.24,35.37a2.67,2.67,0,0,1,.81-2.15,2.39,2.39,0,0,1,1.64-.58,2.32,2.32,0,0,1,1.76.7,2.68,2.68,0,0,1,.69,2,3.48,3.48,0,0,1-.31,1.59,2.1,2.1,0,0,1-.87.9,2.45,2.45,0,0,1-1.27.32,2.34,2.34,0,0,1-1.78-.7A2.81,2.81,0,0,1,109.24,35.37Zm.91,0a2.2,2.2,0,0,0,.43,1.51,1.47,1.47,0,0,0,2.07.15l.14-.15a2.29,2.29,0,0,0,.44-1.54,2.22,2.22,0,0,0-.45-1.47,1.46,1.46,0,0,0-2.2,0A2.19,2.19,0,0,0,110.15,35.37Z" />
            <path class="cls-1"
                d="M121.5,36.07l.87.12a2.27,2.27,0,0,1-.72,1.42,2.16,2.16,0,0,1-1.46.5,2.25,2.25,0,0,1-1.73-.69,2.91,2.91,0,0,1-.64-2,3.77,3.77,0,0,1,.27-1.48A2,2,0,0,1,119,33a2.48,2.48,0,0,1,1.25-.32,2.14,2.14,0,0,1,1.4.43,2,2,0,0,1,.69,1.22l-.87.13a1.32,1.32,0,0,0-.43-.78,1.07,1.07,0,0,0-.76-.28,1.38,1.38,0,0,0-1.09.49,2.28,2.28,0,0,0-.41,1.52,2.33,2.33,0,0,0,.4,1.54,1.31,1.31,0,0,0,1,.47,1.25,1.25,0,0,0,.88-.32A1.55,1.55,0,0,0,121.5,36.07Z" />
            <path class="cls-1"
                d="M129.46,37.34a3.06,3.06,0,0,1-1,.6,2.72,2.72,0,0,1-1,.17,2,2,0,0,1-1.34-.42,1.48,1.48,0,0,1-.06-2.09l.23-.2a2.23,2.23,0,0,1,.65-.29,5.21,5.21,0,0,1,.79-.13,8.66,8.66,0,0,0,1.58-.31v-.24a1,1,0,0,0-.26-.75,1.48,1.48,0,0,0-1-.31,1.61,1.61,0,0,0-.93.23,1.3,1.3,0,0,0-.43.77l-.87-.12a2.17,2.17,0,0,1,.38-.9,1.69,1.69,0,0,1,.79-.52,3.23,3.23,0,0,1,1.19-.19,2.89,2.89,0,0,1,1.09.16,1.2,1.2,0,0,1,.89,1,3.75,3.75,0,0,1,0,.82v1.22a13.82,13.82,0,0,0,.06,1.57,1.93,1.93,0,0,0,.23.62h-.93A1.61,1.61,0,0,1,129.46,37.34Zm-.08-2a6.64,6.64,0,0,1-1.45.34,3.53,3.53,0,0,0-.78.18.74.74,0,0,0-.34.29.64.64,0,0,0-.13.42.71.71,0,0,0,.27.59,1.19,1.19,0,0,0,.79.23,1.71,1.71,0,0,0,.91-.22,1.27,1.27,0,0,0,.58-.61,2,2,0,0,0,.15-.89Z" />
            <path class="cls-1"
                d="M136.49,37.2l.13.78a3,3,0,0,1-.67.08,1.6,1.6,0,0,1-.75-.15.87.87,0,0,1-.38-.4,3.44,3.44,0,0,1-.1-1v-3h-.66v-.65h.66V31.5l.88-.52v1.83h.89v.68h-.89v3a1.35,1.35,0,0,0,0,.49.35.35,0,0,0,.15.17.54.54,0,0,0,.3.06Z" />
            <path class="cls-1" d="M140.27,31.8v-1h.89v1Zm0,6.2V32.81h.89V38Z" />
            <path class="cls-1"
                d="M145.06,35.37a2.67,2.67,0,0,1,.81-2.15,2.39,2.39,0,0,1,1.64-.58,2.33,2.33,0,0,1,1.77.7,2.72,2.72,0,0,1,.69,2,3.61,3.61,0,0,1-.3,1.59,2.15,2.15,0,0,1-.89.9,2.45,2.45,0,0,1-1.27.32,2.38,2.38,0,0,1-1.78-.7A2.81,2.81,0,0,1,145.06,35.37Zm.91,0a2.21,2.21,0,0,0,.44,1.51,1.45,1.45,0,0,0,2.05.15l.15-.15a2.29,2.29,0,0,0,.44-1.54,2.17,2.17,0,0,0-.44-1.47,1.43,1.43,0,0,0-1.1-.5,1.38,1.38,0,0,0-1.1.5,2.18,2.18,0,0,0-.42,1.5Z" />
            <path class="cls-1"
                d="M153.93,38V32.81h.8v.75a1.86,1.86,0,0,1,1.66-.87,2,2,0,0,1,.87.17,1.33,1.33,0,0,1,.6.44,1.59,1.59,0,0,1,.27.66,4.22,4.22,0,0,1,0,.87V38h-.89V34.83a2.23,2.23,0,0,0-.1-.81.89.89,0,0,0-.36-.43,1.27,1.27,0,0,0-.63-.17,1.45,1.45,0,0,0-1,.37,1.77,1.77,0,0,0-.4,1.36V38Z" />
            <path class="cls-1"
                d="M171.55,38v-.66a1.62,1.62,0,0,1-1.46.78,2,2,0,0,1-1.16-.34,2.3,2.3,0,0,1-.81-1,3.32,3.32,0,0,1-.29-1.42,3.85,3.85,0,0,1,.27-1.42,2,2,0,0,1,.77-1,2.15,2.15,0,0,1,1.18-.35,1.77,1.77,0,0,1,.84.21,1.74,1.74,0,0,1,.6.51V30.79h.85V38Zm-2.81-2.61a2.27,2.27,0,0,0,.43,1.51,1.27,1.27,0,0,0,1,.49,1.25,1.25,0,0,0,1-.47,2.23,2.23,0,0,0,.41-1.46,2.43,2.43,0,0,0-.41-1.57,1.27,1.27,0,0,0-1-.51,1.2,1.2,0,0,0-1,.49A2.3,2.3,0,0,0,168.74,35.38Z" />
            <path class="cls-1"
                d="M180.26,36.3l.92.12a2.2,2.2,0,0,1-.81,1.25,2.74,2.74,0,0,1-3.32-.26,2.83,2.83,0,0,1-.67-2,2.93,2.93,0,0,1,.68-2,2.3,2.3,0,0,1,1.77-.72,2.24,2.24,0,0,1,1.71.71,2.82,2.82,0,0,1,.67,2v.25h-3.92a2,2,0,0,0,.5,1.31,1.51,1.51,0,0,0,1.93.2A1.61,1.61,0,0,0,180.26,36.3Zm-2.87-1.47h2.93a1.82,1.82,0,0,0-.33-1,1.37,1.37,0,0,0-1.1-.52,1.41,1.41,0,0,0-1,.42A1.6,1.6,0,0,0,177.39,34.83Z" />
            <path class="cls-1"
                d="M192.36,38l-2-5.23h.93l1.13,3.13c.12.34.23.68.33,1,.08-.27.19-.61.33-1l1.17-3.19h.91l-2,5.23Z" />
            <path class="cls-1"
                d="M198.52,35.37a2.7,2.7,0,0,1,.81-2.15,2.42,2.42,0,0,1,1.65-.58,2.32,2.32,0,0,1,1.76.7,2.72,2.72,0,0,1,.69,2,3.47,3.47,0,0,1-.3,1.59,2,2,0,0,1-.89.9,2.44,2.44,0,0,1-1.26.32,2.35,2.35,0,0,1-1.78-.7A2.81,2.81,0,0,1,198.52,35.37Zm.91,0a2.26,2.26,0,0,0,.44,1.51,1.46,1.46,0,0,0,2.06.15l.15-.15a2.29,2.29,0,0,0,.44-1.54,2.16,2.16,0,0,0-.44-1.47,1.48,1.48,0,0,0-2.09-.12l-.12.12A2.23,2.23,0,0,0,199.43,35.37Z" />
            <path class="cls-1" d="M207.37,31.8v-1h.89v1Zm0,6.2V32.81h.89V38Z" />
            <path class="cls-1"
                d="M214.46,37.2l.13.78a3.16,3.16,0,0,1-.68.08,1.49,1.49,0,0,1-.75-.15.8.8,0,0,1-.37-.4,3.14,3.14,0,0,1-.11-1v-3H212v-.65h.65V31.5l.89-.52v1.83h.89v.68h-.89v3a1.35,1.35,0,0,0,0,.49.35.35,0,0,0,.15.17.52.52,0,0,0,.3.06Z" />
            <path class="cls-1"
                d="M221.66,38v-.77a1.9,1.9,0,0,1-1.67.89,2.35,2.35,0,0,1-.86-.17,1.4,1.4,0,0,1-.6-.45,2,2,0,0,1-.28-.66,7.7,7.7,0,0,1-.05-.83V32.81h.89v2.9a7.37,7.37,0,0,0,0,.94.94.94,0,0,0,.36.55,1,1,0,0,0,.67.19,1.3,1.3,0,0,0,.75-.2,1.16,1.16,0,0,0,.5-.55,2.91,2.91,0,0,0,.15-1V32.81h.88V38Z" />
            <path class="cls-1"
                d="M226.73,38V32.81h.8v.79a2,2,0,0,1,.57-.73,1,1,0,0,1,.57-.18,1.83,1.83,0,0,1,.91.28l-.3.83a1.21,1.21,0,0,0-.66-.19.87.87,0,0,0-.52.17,1,1,0,0,0-.33.48,3.48,3.48,0,0,0-.15,1V38Z" />
            <path class="cls-1"
                d="M236.59,36.3l.92.12a2.18,2.18,0,0,1-.8,1.25,2.74,2.74,0,0,1-3.33-.26,2.83,2.83,0,0,1-.67-2,3,3,0,0,1,.68-2,2.31,2.31,0,0,1,1.77-.72,2.28,2.28,0,0,1,1.72.71,2.85,2.85,0,0,1,.66,2v.25h-3.9a2,2,0,0,0,.49,1.31,1.38,1.38,0,0,0,1.09.46,1.33,1.33,0,0,0,.84-.26A1.54,1.54,0,0,0,236.59,36.3Zm-2.91-1.47h2.92a1.74,1.74,0,0,0-.33-1,1.34,1.34,0,0,0-1.1-.52,1.42,1.42,0,0,0-1,.42A1.59,1.59,0,0,0,233.68,34.83Z" />
            <path class="cls-1"
                d="M241.17,36.43l.88-.14a1.22,1.22,0,0,0,.41.81,1.34,1.34,0,0,0,.94.28,1.33,1.33,0,0,0,.91-.25.7.7,0,0,0,.3-.58.58.58,0,0,0-.26-.48,4,4,0,0,0-.91-.29,9.21,9.21,0,0,1-1.35-.43,1.34,1.34,0,0,1-.58-.5,1.41,1.41,0,0,1,0-1.36,1.59,1.59,0,0,1,.44-.49,1.66,1.66,0,0,1,.56-.25,2.25,2.25,0,0,1,.77-.11,2.82,2.82,0,0,1,1.08.18,1.34,1.34,0,0,1,.69.47,1.78,1.78,0,0,1,.3.82l-.86.11a1,1,0,0,0-.35-.62,1.26,1.26,0,0,0-.8-.24,1.5,1.5,0,0,0-.87.21.56.56,0,0,0-.26.47.5.5,0,0,0,.1.31,1,1,0,0,0,.35.25l.78.22a11.87,11.87,0,0,1,1.32.41,1.33,1.33,0,0,1,.58.47,1.28,1.28,0,0,1,.22.76,1.55,1.55,0,0,1-.27.83,1.57,1.57,0,0,1-.74.61,2.64,2.64,0,0,1-1.11.21,2.43,2.43,0,0,1-1.55-.42A2,2,0,0,1,241.17,36.43Z" />
        </g>
    </g>
</svg>