<svg xmlns="http://www.w3.org/2000/svg" viewBox="0 0 158.08 104.27"><defs><style>.cls-1{fill:#fff;}</style></defs><title>Fichier 9</title><g id="Calque_2" data-name="Calque 2"><g id="Calque_1-2" data-name="Calque 1"><polygon class="cls-1" points="141.86 12.72 141.86 16.12 128.31 16.12 128.31 89.57 76.56 12.72 82.94 12.72 124.64 75.44 124.91 75.44 124.91 16.12 110.09 16.12 110.09 12.72 141.86 12.72"/><polyline class="cls-1" points="66.92 16.12 48.78 16.12 41.51 12.72 70.59 12.72 128.31 98.45 128.31 104.27 125.58 104.27"/><path class="cls-1" d="M79.88,97v3.24a33.75,33.75,0,0,1-11.07,2q-10.89,0-15.37-6.06T49.12,84.26l.26-11.21a21,21,0,0,0-3.74-11.54q-3.73-5.7-16.91-5.7H20.47V52.67H32.34a50.24,50.24,0,0,0,11.67-1,10.22,10.22,0,0,0,6.47-5.34Q52.9,42,52.89,32.57q0-7.72-2.44-11.28a9.94,9.94,0,0,0-5.89-4.38,40.57,40.57,0,0,0-9.07-.82H4.78V12.72H39.31a61.59,61.59,0,0,1,15.6,1.65,20.81,20.81,0,0,1,10.51,6.82,17.82,17.82,0,0,1,4.41,11.87,16.62,16.62,0,0,1-6.47,13.58q-6.48,5.22-21.9,7.85v.33Q52.55,57,59.63,63.26t7.08,21.23q0,8.63,2,11a6.9,6.9,0,0,0,5.57,2.41A20.72,20.72,0,0,0,79.88,97Z"/><circle class="cls-1" cx="4.78" cy="98.1" r="4.78"/><path class="cls-1" d="M151.53,0a6.55,6.55,0,1,0,6.55,6.55A6.55,6.55,0,0,0,151.53,0Zm0,11.57a5,5,0,1,1,5-5h0a5,5,0,0,1-5,5Z"/><path class="cls-1" d="M153.25,7.55l.72.17c-.34,1.39-1.08,2.08-2.33,2.08a2.18,2.18,0,0,1-1.87-1,4.08,4.08,0,0,1-.68-2.38,3.64,3.64,0,0,1,.7-2.32,2.32,2.32,0,0,1,1.9-.9,2.24,2.24,0,0,1,2.28,2l-.74.15c-.27-1-.78-1.5-1.54-1.5a1.45,1.45,0,0,0-1.29.69,3.63,3.63,0,0,0-.45,2,3.29,3.29,0,0,0,.46,1.86,1.47,1.47,0,0,0,1.25.69C152.47,9.15,153,8.63,153.25,7.55Z"/></g></g></svg>