<svg xmlns="http://www.w3.org/2000/svg" xmlns:xlink="http://www.w3.org/1999/xlink" viewBox="0 0 793.31 793.31"><defs><style>.cls-1{fill:url(#Dégradé_sans_nom);}.cls-2{fill:#fff;}</style><linearGradient id="Dégradé_sans_nom" x1="396.65" x2="396.65" y2="793.31" gradientUnits="userSpaceOnUse"><stop offset="0" stop-color="#61fd7d"/><stop offset="1" stop-color="#2bb826"/></linearGradient></defs><title>Fichier 1</title><g id="Calque_2" data-name="Calque 2"><g id="Calque_1-2" data-name="Calque 1"><circle class="cls-1" cx="396.65" cy="396.65" r="396.65"/><path class="cls-2" d="M553.23,239.21a218.66,218.66,0,0,0-155.65-64.52c-121.29,0-220,98.68-220,220a219.62,219.62,0,0,0,29.37,110l-31.21,114L292.34,588A220,220,0,0,0,397.49,614.8h.09c121.27,0,220-98.68,220-220a218.58,218.58,0,0,0-64.39-155.62ZM397.58,577.65h-.08a182.61,182.61,0,0,1-93.08-25.49l-6.68-4-69.22,18.15L247,498.89,242.65,492a182.39,182.39,0,0,1-28-97.3c0-100.81,82.09-182.82,183-182.82a182.9,182.9,0,0,1,182.82,183c0,100.82-82.09,182.84-182.89,182.84ZM497.9,440.72c-5.5-2.75-32.53-16.05-37.57-17.89s-8.7-2.75-12.37,2.76-14.2,17.88-17.41,21.55-6.41,4.12-11.91,1.37-23.22-8.55-44.22-27.28c-16.34-14.57-27.38-32.57-30.58-38.07s-.34-8.48,2.41-11.22c2.47-2.46,5.5-6.42,8.24-9.63s3.67-5.5,5.5-9.17.92-6.88-.46-9.63-12.37-29.81-16.95-40.81c-4.46-10.72-9-9.27-12.37-9.44-3.2-.16-6.87-.19-10.54-.19A20.22,20.22,0,0,0,305,300c-5,5.5-19.24,18.8-19.24,45.85s19.7,53.19,22.45,56.86,38.77,59.19,93.92,83a313.4,313.4,0,0,0,31.35,11.58c13.17,4.18,25.15,3.59,34.63,2.18,10.56-1.58,32.53-13.3,37.11-26.14s4.58-23.84,3.21-26.13-5-3.67-10.54-6.42Z"/></g></g></svg>